<?xml version="1.0" encoding="UTF-8"?>
<svg xmlns="http://www.w3.org/2000/svg" xmlns:xlink="http://www.w3.org/1999/xlink" width="109pt" height="30pt" viewBox="0 0 109 30" version="1.1">
<g id="surface1">
<path style=" stroke:none;fill-rule:nonzero;fill:rgb(0%,0%,0%);fill-opacity:1;" d="M 107.953125 1.199219 L 107.953125 28.722656 L 51.78125 28.722656 L 51.78125 1.199219 Z M 109.148438 0 L 50.585938 0 L 50.585938 29.921875 L 109.148438 29.921875 Z M 109.148438 0 "/>
<path style=" stroke:none;fill-rule:nonzero;fill:rgb(0%,0%,0%);fill-opacity:1;" d="M 62.355469 7.292969 L 62.355469 20.457031 L 66.855469 20.457031 L 66.855469 22.636719 L 60.042969 22.636719 L 60.042969 7.292969 Z M 62.355469 7.292969 "/>
<path style=" stroke:none;fill-rule:nonzero;fill:rgb(0%,0%,0%);fill-opacity:1;" d="M 81.960938 9.46875 L 75.824219 9.46875 L 75.824219 13.152344 L 81.796875 13.152344 L 81.796875 15.328125 L 75.824219 15.328125 L 75.824219 20.453125 L 81.960938 20.453125 L 81.960938 22.632812 L 73.511719 22.632812 L 73.511719 7.292969 L 81.960938 7.292969 Z M 81.960938 9.46875 "/>
<path style=" stroke:none;fill-rule:nonzero;fill:rgb(0%,0%,0%);fill-opacity:1;" d="M 88.664062 22.632812 L 88.664062 7.292969 L 91.878906 7.292969 C 93.109375 7.253906 94.34375 7.40625 95.53125 7.75 C 96.5 8.054688 97.390625 8.574219 98.136719 9.269531 C 99.730469 10.710938 100.527344 12.609375 100.527344 14.960938 C 100.601562 18.226562 98.546875 21.164062 95.453125 22.207031 C 94.289062 22.53125 93.078125 22.671875 91.871094 22.632812 Z M 90.976562 20.453125 L 92.015625 20.453125 C 92.890625 20.476562 93.765625 20.367188 94.605469 20.128906 C 96.8125 19.390625 98.269531 17.289062 98.191406 14.960938 C 98.246094 13.417969 97.632812 11.925781 96.507812 10.867188 C 95.496094 9.933594 94.003906 9.46875 92.03125 9.46875 L 90.992188 9.46875 Z M 90.976562 20.453125 "/>
<path style=" stroke:none;fill-rule:nonzero;fill:rgb(0%,0%,0%);fill-opacity:1;" d="M 2.3125 7.152344 L 2.3125 16.386719 C 2.3125 17.703125 2.527344 18.667969 2.957031 19.273438 C 3.609375 20.105469 4.609375 20.59375 5.667969 20.59375 C 6.726562 20.59375 7.726562 20.105469 8.382812 19.273438 C 8.8125 18.6875 9.027344 17.722656 9.027344 16.386719 L 9.027344 7.152344 L 11.335938 7.152344 L 11.335938 17.027344 C 11.335938 20.164062 8.800781 22.703125 5.667969 22.703125 C 2.539062 22.703125 0 20.164062 0 17.027344 L 0 7.152344 Z M 2.3125 7.152344 "/>
<path style=" stroke:none;fill-rule:nonzero;fill:rgb(0%,0%,0%);fill-opacity:1;" d="M 18.675781 22.492188 L 18.675781 7.152344 L 29.832031 17.128906 L 29.832031 7.152344 L 32.140625 7.152344 L 32.140625 22.492188 L 20.988281 12.386719 L 20.988281 22.492188 Z M 18.675781 22.492188 "/>
<path style=" stroke:none;fill-rule:nonzero;fill:rgb(0%,0%,0%);fill-opacity:1;" d="M 42.601562 7.152344 L 42.601562 22.492188 L 40.289062 22.492188 L 40.289062 7.152344 Z M 42.601562 7.152344 "/>
</g>
</svg>
